<svg id="beer_color_hex" xmlns="http://www.w3.org/2000/svg" xmlns:xlink="http://www.w3.org/1999/xlink" x="0px" y="0px" viewBox="0 0 470 470">
	<path style="fill:#FBD7B5;" d="M369.066,120.839h-37.851v2.5c0,4.142-3.357,7.5-7.5,7.5c-0.001,0-0.001,10.149-0.001,10.149
		c0.001,0,45.352,0,45.352,0c32.235,0,58.46,26.225,58.46,58.46v111.558c0,32.235-26.225,58.46-58.46,58.46h-37.851v2.5
		c0,4.142-3.357,7.5-7.5,7.5c-0.001,0-0.001,10.147-0.001,10.147c0.001,0,45.352,0,45.352,0c43.345,0,78.608-35.264,78.608-78.608
		V199.447C447.674,156.103,412.411,120.839,369.066,120.839z" />
	<path style="fill:#FFFFFF;" d="M301.651,75.839C287.53,39.58,252.244,15,212.658,15c-28.077,0-54.622,12.306-72.829,33.764
		c-2.146,2.527-5.692,3.349-8.73,2.016c-7.291-3.197-15.008-4.818-22.934-4.818c-21.335,0-40.427,11.663-50.29,29.877H301.651z" />
	<path style="fill:#FFFFFF;" d="M316.215,123.338v-32.5H46.568c-0.05,0-4.242,0-4.242,0v80.148h273.89v-22.5
		c0-4.142,3.357-7.5,7.499-7.5v-10.149C319.572,130.838,316.215,127.48,316.215,123.338z" />
	<path d="M316.215,371.966V185.987H42.326V455h273.89v-57.886c0-4.142,3.357-7.5,7.499-7.5v-10.147
		C319.572,379.466,316.215,376.108,316.215,371.966z M72.326,432.5c0,4.142-3.357,7.5-7.5,7.5s-7.5-3.358-7.5-7.5V268.487
		c0-4.142,3.357-7.5,7.5-7.5s7.5,3.358,7.5,7.5V432.5z M72.326,238.487c0,4.142-3.357,7.5-7.5,7.5s-7.5-3.358-7.5-7.5v-30
		c0-4.142,3.357-7.5,7.5-7.5s7.5,3.358,7.5,7.5V238.487z M116.251,385.887c-4.411,0-8-3.589-8-8s3.589-8,8-8s8,3.589,8,8
		S120.663,385.887,116.251,385.887z M136.251,355.887c-4.411,0-8-3.589-8-8s3.589-8,8-8s8,3.589,8,8
		S140.663,355.887,136.251,355.887z M256.251,265.887c-4.411,0-8-3.589-8-8s3.589-8,8-8s8,3.589,8,8
		S260.663,265.887,256.251,265.887z" />
	<path style="fill:#34150C;" d="M369.066,105.839h-37.851v-22.5c0-4.142-3.357-7.5-7.5-7.5h-6.127
		C302.768,30.916,260.414,0,212.658,0c-30.684,0-59.784,12.699-80.666,35.019c-7.665-2.695-15.656-4.057-23.827-4.057
		c-29.628,0-55.839,17.82-66.863,44.877h-6.476c-4.143,0-7.5,3.358-7.5,7.5V455h-12.5c-4.143,0-7.5,3.358-7.5,7.5s3.357,7.5,7.5,7.5
		h328.89c4.143,0,7.5-3.358,7.5-7.5s-3.357-7.5-7.5-7.5h-12.5v-50.386h37.851c51.616,0,93.608-41.993,93.608-93.608V199.447
		C462.674,147.832,420.682,105.839,369.066,105.839z M447.674,311.005c0,43.345-35.264,78.608-78.608,78.608h-45.351
		c-4.143,0-7.5,3.358-7.5,7.5V455H42.326V185.987h273.89v185.979c0,4.142,3.357,7.5,7.499,7.5c4.144,0,7.501-3.358,7.501-7.5v-2.5
		h37.851c32.235,0,58.46-26.225,58.46-58.46V199.447c0-32.235-26.225-58.46-58.46-58.46h-45.351c-4.143,0-7.5,3.358-7.5,7.5v22.5
		H42.326V90.839h4.193c0.05,0,269.697,0,269.697,0v32.5c0,4.142,3.357,7.5,7.499,7.5c4.144,0,7.501-3.358,7.501-7.5v-2.5h37.851
		c43.345,0,78.608,35.264,78.608,78.608V311.005z M331.215,155.987h37.851c23.964,0,43.46,19.496,43.46,43.46v111.558
		c0,23.964-19.496,43.46-43.46,43.46h-37.851V155.987z M108.165,45.961c7.926,0,15.643,1.621,22.934,4.818
		c3.038,1.333,6.585,0.511,8.73-2.016C158.036,27.306,184.581,15,212.658,15c39.586,0,74.872,24.58,88.993,60.839H57.875
		C67.738,57.625,86.829,45.961,108.165,45.961z" />
	<path style="fill:#34150C;" d="M256.251,249.887c-4.411,0-8,3.589-8,8s3.589,8,8,8s8-3.589,8-8S260.663,249.887,256.251,249.887z" />
	<path style="fill:#34150C;" d="M136.251,339.887c-4.411,0-8,3.589-8,8s3.589,8,8,8s8-3.589,8-8S140.663,339.887,136.251,339.887z" />
	<path style="fill:#34150C;" d="M116.251,369.887c-4.411,0-8,3.589-8,8s3.589,8,8,8s8-3.589,8-8S120.663,369.887,116.251,369.887z" />
	<path style="fill:#FFFFFF;" d="M64.826,260.987c-4.143,0-7.5,3.358-7.5,7.5V432.5c0,4.142,3.357,7.5,7.5,7.5s7.5-3.358,7.5-7.5
		V268.487C72.326,264.345,68.968,260.987,64.826,260.987z" />
	<path style="fill:#FFFFFF;" d="M64.826,200.987c-4.143,0-7.5,3.358-7.5,7.5v30c0,4.142,3.357,7.5,7.5,7.5s7.5-3.358,7.5-7.5v-30
		C72.326,204.345,68.968,200.987,64.826,200.987z" />
</svg>